<svg xmlns="http://www.w3.org/2000/svg" width="276.165" height="276.167" viewBox="0 0 276.165 276.167"><defs><style>.a{fill:#0857e0;}.b{fill:#fff;}</style></defs><g transform="translate(973.08 2944)"><g transform="translate(2085 -3284.299)"><path class="a" d="M-3052.138,422.5c9.342-45.2,38.087-70.373,82.923-77.978a289.255,289.255,0,0,1,99.39.158c46.165,8.16,73.918,34.8,82.759,80.681a276.181,276.181,0,0,1-.107,106.717c-9.451,44.883-38.937,72.589-83.608,80.166a289.254,289.254,0,0,1-99.39-.158c-46.165-8.161-74.042-36.132-82.882-82.011-7.179-35.691-6.488-71.753.915-107.579Z"/></g><g transform="translate(2085 -3284.299)"><path class="b" d="M-2954.519,564.614a17.26,17.26,0,0,1-17.26-17.259V530.11A51.839,51.839,0,0,1-2920,478.331h17.262a17.28,17.28,0,0,0,17.26-17.261V443.837a17.28,17.28,0,0,0-17.26-17.26h-34.522a17.28,17.28,0,0,0-17.26,17.26,17.261,17.261,0,0,1-17.26,17.26,17.261,17.261,0,0,1-17.26-17.26,51.838,51.838,0,0,1,51.78-51.78h34.522a51.838,51.838,0,0,1,51.779,51.78V461.07a51.839,51.839,0,0,1-51.779,51.781H-2920a17.279,17.279,0,0,0-17.26,17.259v17.245A17.259,17.259,0,0,1-2954.519,564.614Z"/></g></g></svg>