<svg xmlns="http://www.w3.org/2000/svg" width="399.999" height="125.888" viewBox="0 0 399.999 125.888"><g transform="translate(-83.044 -368.776)"><g transform="translate(83.044 368.776)"><g transform="translate(141.63 31.581)"><path d="M419.519,451.741c0,10.321-7.428,17.122-19,17.122H389.963v20.719H378.312V434.619h22.207c11.651,0,19,6.724,19,17.122m-11.807,0c0-4.064-2.659-6.957-7.819-6.957h-9.93V458.7h9.93c5.16,0,7.819-2.893,7.819-6.958" transform="translate(-378.312 -434.618)" fill="#1a2552"/><path d="M485.58,495.324c4.852,0,7.315-1.717,9.033-4.853l8.435,5.6c-3.061,4.478-8.137,8.434-17.767,8.434-12.766,0-21.052-8.883-21.052-20.6a20.391,20.391,0,0,1,20.3-20.6,19.71,19.71,0,0,1,20.23,19.78,30.329,30.329,0,0,1-.224,4.181H475.054c1.269,5.15,5.3,8.061,10.526,8.061m8.808-15.3c-1.045-5.15-4.479-8.361-9.555-8.361s-8.809,2.986-9.929,8.361Z" transform="translate(-423.018 -449.542)" fill="#1a2552"/><path d="M600.356,483.9c0,11.721-8.213,20.606-19.562,20.606a15.623,15.623,0,0,1-11.275-4.256v19.989h-11.05V463.3H568.7v5.225a16.036,16.036,0,0,1,12.4-5.226c11.349,0,19.263,8.809,19.263,20.6m-10.976,0c0-6.271-4.255-10.9-10.08-10.9-6.123,0-10.229,4.48-10.229,10.9s4.106,10.825,10.229,10.825c5.825,0,10.08-4.554,10.08-10.825" transform="translate(-472.053 -449.541)" fill="#1a2552"/><path d="M652.982,483.9c0-11.794,8.809-20.6,21.275-20.6,12.391,0,21.275,8.808,21.275,20.6,0,11.718-8.884,20.6-21.275,20.6-12.467,0-21.275-8.883-21.275-20.6m31.5-.075c0-6.27-4.031-10.674-10.153-10.674S664.1,477.558,664.1,483.9c0,6.27,4.106,10.747,10.227,10.747,5.973,0,10.153-4.477,10.153-10.823" transform="translate(-521.232 -449.542)" fill="#1a2552"/><rect width="10.856" height="54.965" transform="translate(179.505)" fill="#1a2552"/><rect width="10.856" height="54.965" transform="translate(198.137)" fill="#1a2552"/><path d="M823.49,494.123l9.333-3.582c1.046,3.433,3.882,5.449,8.287,5.449,3.284,0,5.227-1.343,5.227-3.582,0-6.868-20.979-3.584-20.979-17.1,0-7.465,6.122-12.019,15.678-12.019,7.839,0,13.513,3.21,15.155,8.66l-9.332,3.583a5.845,5.845,0,0,0-5.973-4.032c-2.986,0-4.628,1.2-4.628,3.211,0,6.344,21.053,2.538,21.053,17.02,0,7.913-6.5,12.766-16.574,12.766-8.734,0-15.006-3.584-17.246-10.377" transform="translate(-609.952 -449.538)" fill="#1a2552"/></g><g transform="translate(-927 104)"><path d="M2.709,37.468c4.258-20.6,17.361-32.077,37.8-35.544A131.847,131.847,0,0,1,85.814,2c21.044,3.72,33.7,15.864,37.725,36.778a125.9,125.9,0,0,1-.049,48.646c-4.308,20.46-17.749,33.089-38.112,36.543a131.86,131.86,0,0,1-45.306-.072c-21.044-3.72-33.751-16.471-37.781-37.384a121.859,121.859,0,0,1,.417-49.039Z" transform="translate(927 -104)" fill="#0857e0"/><path d="M422.786,397.142a7.868,7.868,0,0,1-7.868-7.868V381.4a23.631,23.631,0,0,1,23.6-23.6h7.868a7.877,7.877,0,0,0,7.868-7.868v-7.862a7.877,7.877,0,0,0-7.868-7.868H430.654a7.877,7.877,0,0,0-7.868,7.868v7.874a7.868,7.868,0,1,1-15.736,0v-7.874a23.631,23.631,0,0,1,23.6-23.6H446.39a23.631,23.631,0,0,1,23.6,23.6v7.862a23.63,23.63,0,0,1-23.6,23.6h-7.866a7.877,7.877,0,0,0-7.868,7.868v7.874a7.868,7.868,0,0,1-7.87,7.868" transform="translate(551.17 -398.795)" fill="#fff"/></g></g><g transform="translate(472.032 399.91)"><path d="M905.249,433.684H907l1.037,3.891h.046l1.024-3.885h1.756v5.835H909.8v-4.441l-.051-.007-1.126,4.46c-.341,0-.687.006-1.031-.008-.05,0-.123-.094-.139-.157q-.53-2.074-1.047-4.152a.161.161,0,0,0-.077-.11v4.416h-1.08Z" transform="translate(-899.852 -433.684)" fill="#1a2552"/><path d="M894,434.69v-.99h4.617v.974h-1.694v4.859H895.74v-4.84Z" transform="translate(-893.998 -433.691)" fill="#1a2552"/></g></g></svg>